<svg id="artwork" xmlns="http://www.w3.org/2000/svg" width="187.44" height="19.2" viewBox="0 0 187.44 19.2"><defs><style>.cls-1{fill:#d80b24;}</style></defs><title>logo_slogan</title><path d="M0,15.05v-15H1.67V6.74H8.93V0.05h1.69v15H8.93V8.18H1.67v6.87H0Z" transform="translate(0 0)"/><path d="M28.44,4.11h1.42V6.35a5,5,0,0,1,4.58-2.58,5.78,5.78,0,0,1,0,11.55A4.86,4.86,0,0,1,30,12.78v6.38H28.44v-15ZM38.55,9.56a4.27,4.27,0,0,0-4.17-4.37H34.16a4.34,4.34,0,0,0-3.09,1.28A4.54,4.54,0,0,0,29.85,9.6,4.27,4.27,0,0,0,34,14H34.2a4.27,4.27,0,0,0,4.35-4.19q0-.09,0-0.18h0v0Z" transform="translate(0 0)"/><path d="M42.45,4.11h1.42V6.35a5,5,0,0,1,4.58-2.58,5.78,5.78,0,0,1,0,11.55A4.87,4.87,0,0,1,44,12.78v6.38h-1.5v-15Zm10.1,5.45a4.27,4.27,0,0,0-4.17-4.37H48.16a4.34,4.34,0,0,0-3.09,1.28A4.53,4.53,0,0,0,43.85,9.6,4.28,4.28,0,0,0,48.06,14H48.2a4.27,4.27,0,0,0,4.35-4.19q0-.09,0-0.18h0v0Z" transform="translate(0 0)"/><path d="M58.92,14.84L54.69,4.11h1.6l3.44,8.84,3.54-8.84h1.65L58.68,19.2H57.05Z" transform="translate(0 0)"/><path d="M71.18,4.11h1.59l3,9,2.62-8h1.24l2.64,8,3-9h1.57L83.06,15.05H81.58L79,7.05l-2.54,8H75Z" transform="translate(0 0)"/><path d="M89,0h1.5V2.09H89V0Zm0,4.11h1.5V15.05H89V4.11h0Z" transform="translate(0 0)"/><path d="M94.79,5.35H92.64V4.15h2.15V0h1.48V4.15h2.4v1.2h-2.4v9.74H94.79V5.35h0Z" transform="translate(0 0)"/><path d="M100.83,0h1.5V5.9a4.13,4.13,0,0,1,3.91-2.09,4.27,4.27,0,0,1,3.62,1.5,6.09,6.09,0,0,1,1,3.84V15h-1.48V9.21a4.69,4.69,0,0,0-.79-2.89,3.31,3.31,0,0,0-2.75-1.12,3.41,3.41,0,0,0-2.66,1.08,3.71,3.71,0,0,0-.87,2.54V15h-1.5V0Z" transform="translate(0 0)"/><path d="M119.38,4.11h1.42V6.35a5,5,0,0,1,4.58-2.58,5.79,5.79,0,0,1,0,11.58h0a4.87,4.87,0,0,1-4.49-2.54v6.38h-1.51V4.11Zm10.1,5.45a4.27,4.27,0,0,0-4.17-4.37h-0.22A4.34,4.34,0,0,0,122,6.47a4.53,4.53,0,0,0-1.22,3.13A4.27,4.27,0,0,0,125,14h0.16a4.27,4.27,0,0,0,4.35-4.19q0-.09,0-0.18h0v0Z" transform="translate(0 0)"/><path d="M133,0h1.51V5.9a4.12,4.12,0,0,1,3.9-2.09,4.27,4.27,0,0,1,3.62,1.5,6.09,6.09,0,0,1,1,3.84V15h-1.48V9.21a4.68,4.68,0,0,0-.79-2.89A3.3,3.3,0,0,0,138,5.2a3.4,3.4,0,0,0-2.66,1.08,3.7,3.7,0,0,0-.87,2.54V15H133V0Z" transform="translate(0 0)"/><path d="M145,9.55a5.8,5.8,0,1,1,5.82,5.78h0A5.65,5.65,0,0,1,145,9.82q0-.14,0-0.27h0Zm1.48,0a4.31,4.31,0,1,0,4.31-4.39,4.26,4.26,0,0,0-4.31,4.21q0,0.09,0,.18h0Z" transform="translate(0 0)"/><path d="M159.38,5.35h-2.15V4.15h2.15V0h1.49V4.15h2.4v1.2h-2.4v9.74h-1.49V5.35Z" transform="translate(0 0)"/><path d="M163.84,9.55a5.8,5.8,0,1,1,5.82,5.78h0a5.65,5.65,0,0,1-5.8-5.5q0-.14,0-0.28h0Zm1.49,0a4.31,4.31,0,1,0,4.31-4.39,4.26,4.26,0,0,0-4.31,4.21q0,0.09,0,.18h0Z" transform="translate(0 0)"/><path d="M182.32,6.85a1.88,1.88,0,1,0-3.76,0c0,1,.83,1.46,2.16,1.85,1.56,0.43,3.31.87,3.39,3.21a3.4,3.4,0,0,1-3.31,3.49h-0.31a3.51,3.51,0,0,1-3.73-3.27s0-.1,0-0.15h1.48a2.16,2.16,0,0,0,2.15,2.17h0.13a2,2,0,0,0,2.12-1.88q0-.09,0-0.17c0-1.24-.86-1.75-2.75-2.3-1.57-.47-2.79-1.1-2.83-2.83a3.15,3.15,0,0,1,3.16-3.14h0.26a3.1,3.1,0,0,1,3.32,2.86s0,0.09,0,.14h-1.48v0Z" transform="translate(0 0)"/><path d="M187.44,15.05h-1.58V12.81h1.58v2.24Z" transform="translate(0 0)"/><path class="cls-1" d="M19.48,15.54c3-3.43,7-4.53,7-8.34,0-4.14-5.24-4.91-7-1.29-1.75-3.62-7-2.85-7,1.29C12.5,11,16.44,12.11,19.48,15.54Z" transform="translate(0 0)"/></svg>