<svg id="artwork" xmlns="http://www.w3.org/2000/svg" width="74.36" height="74.37" viewBox="0 0 74.36 74.37"><defs><style>.cls-1{fill:#d80b24;}.cls-2{fill:#fff;}</style></defs><title>logo_kitamura</title><rect class="cls-1" width="74.36" height="74.37"/><path class="cls-2" d="M69,48.94a1.61,1.61,0,1,0,1.62,1.61A1.61,1.61,0,0,0,69,48.94Zm0,3a1.43,1.43,0,1,1,1.44-1.43A1.43,1.43,0,0,1,69,51.94Z" transform="translate(0 0)"/><path class="cls-2" d="M69.89,51.51l-0.53-.78a0.65,0.65,0,0,0,.52-0.57,0.55,0.55,0,0,0-.4-0.52,1.64,1.64,0,0,0-.56-0.06H68.26v1.94h0.36V50.76H69l0.48,0.76h0.4Zm-1.27-1.7h0.27a2.08,2.08,0,0,1,.4,0,0.33,0.33,0,0,1,.26.33,0.31,0.31,0,0,1-.18.29,1,1,0,0,1-.43,0H68.62V49.81Z" transform="translate(0 0)"/><path class="cls-2" d="M30.25,25.68l-0.63,2.26H36c-1,2.23-3.85,2.37-5.21,2.37H29.62L29,32.4h2.36c5.06,0,7-2.48,7.64-4.73l0.6-2H30.25Z" transform="translate(0 0)"/><polygon class="cls-2" points="40.08 22.62 31.41 22.62 30.73 24.83 39.4 24.83 40.08 22.62"/><path class="cls-2" d="M14.08,23.54l0.33-1.06H11.75l-0.33,1.06H9l-0.68,2.2h2.36C9.83,28.2,9,29.25,7.4,30.12L6.67,32.5c2.8-.7,5-1.93,6.69-6.76h2.06l-1,3.3a1.4,1.4,0,0,1-1.55,1.16h-0.5l-0.66,2.17h1.35c2.33,0,3.17-.65,4-3.36l1.68-5.47H14.08Z" transform="translate(0 0)"/><path class="cls-2" d="M26.94,27.36a18.15,18.15,0,0,0,1.79-4.88H26.17A11.78,11.78,0,0,1,25,25.88,20.16,20.16,0,0,0,20.6,23.8l-0.72,2.29a17,17,0,0,1,3.61,1.78,8.17,8.17,0,0,1-5.16,2.44l-0.71,2.17a10.16,10.16,0,0,0,7.83-3.11,19.83,19.83,0,0,1,1.8,1.78l0.83-2.63A10.63,10.63,0,0,0,26.94,27.36Z" transform="translate(0 0)"/><path class="cls-2" d="M45.62,22.62a5,5,0,0,0-1.2,9.8h0l2.87-7.28a3,3,0,0,1-.85,5.36l0.53,2A5,5,0,0,0,45.62,22.62ZM43.3,29.45a3,3,0,0,1,1.89-4.79Z" transform="translate(0 0)"/><polygon class="cls-2" points="68.17 39.66 69.52 35.59 56.33 35.59 54.99 39.66 68.17 39.66"/><path class="cls-2" d="M59.45,51.94H65l2.76-8.45A1.79,1.79,0,0,0,65.95,41H54.62l-1.39,4.24h8.39Z" transform="translate(0 0)"/><path class="cls-2" d="M37.07,35.58H25.53l-4,12.23h4.9l2.67-8.15h4l-1.33,4.08h-2.7l-1.33,4.07h2.7l-1.33,4.13h5.25l4.49-13.83A1.78,1.78,0,0,0,37.07,35.58Z" transform="translate(0 0)"/><polygon class="cls-2" points="16.21 41.62 20.93 41.62 22.27 37.54 15.71 37.54 15.4 35.03 10.34 35.03 10.65 37.54 6.67 37.54 5.34 41.62 11.15 41.62 11.42 43.74 6.18 43.74 4.85 47.81 11.92 47.81 12.43 51.89 17.48 51.89 16.98 47.81 19.9 47.81 21.23 43.74 16.48 43.74 16.21 41.62"/><path class="cls-2" d="M51.42,42.94h-4.8l1.23,4.89H43.39l4-12.23H42.17L37.62,49.41a1.79,1.79,0,0,0,1.8,2.53h14.2Z" transform="translate(0 0)"/></svg>