<svg id="レイヤー_1" data-name="レイヤー 1" xmlns="http://www.w3.org/2000/svg" width="150" height="18" viewBox="0 0 150 18">
  <defs>
    <style>
      .cls-1 {
        fill: #fff;
        fill-opacity: 0;
      }
    </style>
  </defs>
  <title>logo_kitamura_g</title>
  <rect class="cls-1" width="150" height="18"/>
  <g>
    <path d="M9.81,5.65A10.12,10.12,0,0,0,11.59,9a5.42,5.42,0,0,0-.63,1A10.26,10.26,0,0,1,9.66,7c0,1.33,0,1.33.07,2.92v5.38a14.64,14.64,0,0,0,.11,2.09H8.51a12.49,12.49,0,0,0,.13-2.09V10.2c0-.92,0-1.67.11-2.86a14.37,14.37,0,0,1-2.43,5.46,3.68,3.68,0,0,0-.65-1,15.11,15.11,0,0,0,2.79-6.1h-1a7.8,7.8,0,0,0-1.26.07V4.58a7.32,7.32,0,0,0,1.26.07H8.62V2.87A10.68,10.68,0,0,0,8.53,1h1.3a11.77,11.77,0,0,0-.09,1.85V4.66h.59a6.27,6.27,0,0,0,1.12-.07V5.7a10.75,10.75,0,0,0-1.12-.05Zm3.6-.27a12.35,12.35,0,0,1-1.17,2.27,3.53,3.53,0,0,0-.9-.67,11.24,11.24,0,0,0,1.8-4.05,5.13,5.13,0,0,0,.14-1l1.15.29a8.87,8.87,0,0,0-.29,1c-.11.41-.23.85-.36,1.21h2.14V2.66a9.16,9.16,0,0,0-.11-1.6H17.1A8.75,8.75,0,0,0,17,2.64V4.37h2.63a10.2,10.2,0,0,0,1.75-.11V5.47a14.24,14.24,0,0,0-1.75-.09H17v3h3.22A12.1,12.1,0,0,0,22,8.24V9.45c-.56-.05-1.12-.09-1.76-.09H17.35a12.7,12.7,0,0,0,1.78,2.5,13.58,13.58,0,0,0,3.26,2.7,4.51,4.51,0,0,0-.79,1.08,14.2,14.2,0,0,1-4.68-5.49c0,.36,0,.36.05,1,0,.32,0,.77,0,1.19v3.26a13,13,0,0,0,.11,1.89H15.82a13.88,13.88,0,0,0,.11-1.91V12.34c0-.16,0-.88.07-2.16a12.6,12.6,0,0,1-2.57,3.69,11.37,11.37,0,0,1-2.18,1.8,4.63,4.63,0,0,0-.76-1,12.93,12.93,0,0,0,5-5.37H13.55a12.75,12.75,0,0,0-1.8.11V8.24a12.57,12.57,0,0,0,1.8.11h2.38v-3Z"/>
    <path d="M38.2,4.53a10.88,10.88,0,0,0,1.75-.11v1.3a13.39,13.39,0,0,0-1.85-.11H34.87a26,26,0,0,0,.38,3.78,17.49,17.49,0,0,0,.9,3.39,6.52,6.52,0,0,0,1.49,2.56,1.19,1.19,0,0,0,.58.34c.4,0,.72-1,1-3a3.14,3.14,0,0,0,1.06.7,8.91,8.91,0,0,1-.88,2.81,1.35,1.35,0,0,1-1.15.76c-.67,0-1.46-.61-2.16-1.64a16,16,0,0,1-2-5.92,33.5,33.5,0,0,1-.38-3.82H26.15a14.54,14.54,0,0,0-1.85.11V4.42a12.78,12.78,0,0,0,1.85.11h7.49c0-.56,0-.56,0-1.82a8.28,8.28,0,0,0-.11-1.4h1.39A9.75,9.75,0,0,0,34.78,3c0,.38,0,.74,0,1.55ZM26.64,9.39A10.28,10.28,0,0,0,25,9.48V8.28a9.71,9.71,0,0,0,1.64.09h4.66a9.6,9.6,0,0,0,1.62-.09V9.48a10,10,0,0,0-1.6-.09H29.5v4.86c1.33-.27,2.11-.47,4.05-1v1.1c-2.67.7-5.08,1.22-8.07,1.76l-.81.18L24.4,15a20.3,20.3,0,0,0,3.94-.56V9.39ZM37.91,4.1a11.58,11.58,0,0,0-2.27-2l.83-.61a14.87,14.87,0,0,1,2.29,1.94Z"/>
    <path d="M50.61,1.11a12.11,12.11,0,0,0,3,3.22,19.44,19.44,0,0,0,5,2.88,3.81,3.81,0,0,0-.7,1.15,24.75,24.75,0,0,1-5-3.13A15,15,0,0,1,50,2.15a15.58,15.58,0,0,1-2.7,3,19.8,19.8,0,0,1-4.86,3.17,3.61,3.61,0,0,0-.76-1,18.91,18.91,0,0,0,4.77-2.94,13.24,13.24,0,0,0,2.86-3.21Zm-6.09,10a15.39,15.39,0,0,0-2.05.11V10a15.49,15.49,0,0,0,2.05.11H55.62A15.3,15.3,0,0,0,57.67,10v1.3a15.58,15.58,0,0,0-2.05-.11H49.16a27.07,27.07,0,0,1-2.25,4.25c2.48-.16,4.36-.34,7-.67-1.08-1.17-1.4-1.49-2.2-2.23l.94-.58A39,39,0,0,1,57,16.68l-1,.74c-.7-1-.94-1.3-1.31-1.76-3.21.43-5.92.72-8.73.94a21.82,21.82,0,0,0-3,.32l-.22-1.37a8.31,8.31,0,0,0,.92.05c.29,0,.29,0,1.91-.11a27.16,27.16,0,0,0,2.29-4.34Zm1.15-4.48a9.55,9.55,0,0,0,1.42.07h5.82a11,11,0,0,0,1.51-.07V7.88a11.14,11.14,0,0,0-1.51-.07H47.09a10.41,10.41,0,0,0-1.4.07Z"/>
    <path d="M63.93,15.6A11.69,11.69,0,0,0,64,17.37H62.71a12.21,12.21,0,0,0,.11-1.78V10a18.43,18.43,0,0,1-2.48,2.13,3.39,3.39,0,0,0-.67-1,15.49,15.49,0,0,0,3.24-2.67,12.2,12.2,0,0,0,2.23-3.35H61.77a12.51,12.51,0,0,0-1.44.07V4a11.88,11.88,0,0,0,1.4.07H62.8V2.37A10.3,10.3,0,0,0,62.71,1h1.35A7.66,7.66,0,0,0,64,2.39V4h1A6.53,6.53,0,0,0,66,4l.56.63c-.13.2-.23.4-.43.77a15.51,15.51,0,0,1-2,3.06,10.91,10.91,0,0,0,2.9,2.45,4.32,4.32,0,0,0-.61,1,11.71,11.71,0,0,1-2.54-2.27ZM70.18,2.68A10.65,10.65,0,0,0,70.06,1h1.42a8.49,8.49,0,0,0-.13,1.64V6.57h2.36a11.62,11.62,0,0,0,1.76-.11V7.72c-.56-.05-1.13-.09-1.76-.09H71.35v7.69H74.2a12.63,12.63,0,0,0,1.94-.11v1.35a12.17,12.17,0,0,0-1.94-.13H67.71a11.8,11.8,0,0,0-1.93.13V15.21a12.64,12.64,0,0,0,1.94.11h2.45V7.63H68.4c-.61,0-1.21,0-1.76.09V6.46a11.45,11.45,0,0,0,1.76.11h1.78Z"/>
    <path d="M90.29,3.25a6.16,6.16,0,0,0-.4-1.53l1.42-.23A9.29,9.29,0,0,0,91.51,3l.36,2,4.07-.63A8.44,8.44,0,0,0,97.52,4l.25,1.3c-.49.05-.49.05-1.6.23l-4.09.63.68,3.64,4.46-.72A11,11,0,0,0,99,8.67L99.27,10a5.45,5.45,0,0,0-.79.09c-.07,0-.25,0-.56.09l-.41.07L93,11l.74,4a9.81,9.81,0,0,0,.4,1.71l-1.44.27a14.26,14.26,0,0,0-.22-1.73l-.74-4-4.83.77a9.58,9.58,0,0,0-1.73.36l-.23-1.37a9.48,9.48,0,0,0,1.78-.16L91.51,10l-.65-3.64-3.71.58a14.85,14.85,0,0,0-1.8.4L85.1,6A13.51,13.51,0,0,0,87,5.79l3.67-.58Z"/>
    <path d="M108.25,1.54a5.92,5.92,0,0,0-.63,1.19,9.17,9.17,0,0,1-.56,1c.25,0,.25,0,5.56-.09a3.13,3.13,0,0,0,1-.18l.81.81A4.05,4.05,0,0,0,114,5.45a20.49,20.49,0,0,1-4.7,7.74,20.09,20.09,0,0,1-5.69,3.71,3.2,3.2,0,0,0-.88-1.12,16.22,16.22,0,0,0,3.73-2A12.59,12.59,0,0,0,109.53,11a22.63,22.63,0,0,0-4-2.92l.83-.92a25.67,25.67,0,0,1,4,2.79,21.52,21.52,0,0,0,2.5-5.22l-6.3.09a17.88,17.88,0,0,1-4.29,4.79,3.32,3.32,0,0,0-1-.86,15.67,15.67,0,0,0,4.59-5.13,9.81,9.81,0,0,0,1.06-2.47Z"/>
    <path d="M123.46,2.06a7.18,7.18,0,0,0-.49,1.3,97.43,97.43,0,0,1-3.75,10.53c2.4-.16,6.63-.72,8.75-1.13a35.09,35.09,0,0,0-2.77-4.66l1.12-.61a46.61,46.61,0,0,1,4.48,8.14l-1.26.68a24.52,24.52,0,0,0-1.06-2.43,111,111,0,0,1-11.07,1.5,12.41,12.41,0,0,0-1.53.2l-.18-1.5.5,0c.13,0,1.12-.05,1.53-.09a68.54,68.54,0,0,0,2.72-7.13,34.17,34.17,0,0,0,1.42-5.19Z"/>
    <path d="M132.64,6.55a13,13,0,0,0,2.11.11H144a3,3,0,0,0,1.17-.13l.67.77a5.25,5.25,0,0,0-.5,1.13c-1.53,4.2-4,6.5-8.68,8.07a4,4,0,0,0-.77-1.24,12.37,12.37,0,0,0,5.35-2.74,11.11,11.11,0,0,0,2.92-4.72h-9.4a16.63,16.63,0,0,0-2.09.09Zm1.55-4.18a8.27,8.27,0,0,0,1.89.13h6A8.27,8.27,0,0,0,144,2.37V3.76a12,12,0,0,0-1.87-.09h-6a12,12,0,0,0-1.87.09Z"/>
  </g>
</svg>
