<svg id="artwork" xmlns="http://www.w3.org/2000/svg" width="74.37" height="74.37" viewBox="0 0 74.37 74.37"><defs><style>.cls-1{fill:#d80b24;}.cls-2{fill:#fff;}.cls-3{fill:#0082cb;}.cls-4{fill:#00a63d;}.cls-5{fill:#e5005a;}.cls-6{fill:#f5a000;}</style></defs><title>logo_mario</title><path class="cls-1" d="M0,0H74.37V74.37H0V0Z" transform="translate(0 0)"/><polygon class="cls-2" points="70.2 11.76 67.14 62.94 7.03 64.04 4.03 10.84 70.2 11.76"/><polygon class="cls-2" points="11.65 71.52 10.42 67.31 5.25 66.54 4.83 71.52 11.65 71.52"/><polygon class="cls-2" points="13.44 3.53 7.04 3.94 6.79 7.43 13.44 7.6 13.44 3.53"/><polygon class="cls-2" points="21.8 70.7 21.21 66.72 16.92 66.68 16.51 70.58 21.8 70.7"/><polygon class="cls-2" points="25.9 3.45 17.5 3.52 17.5 7.36 25.23 7.43 25.9 3.45"/><polygon class="cls-2" points="34.46 70.67 34.37 67.19 26.31 66.85 26.31 70.67 34.46 70.67"/><polygon class="cls-2" points="36.2 4.05 31.65 3.32 31.57 7.31 36.2 7.6 36.2 4.05"/><polygon class="cls-2" points="45.09 66.85 39.03 66.85 39.03 70.24 45.02 70.67 45.09 66.85"/><polygon class="cls-2" points="47.17 3.61 40.77 3.61 40.84 7.24 47.17 7.6 47.17 3.61"/><polygon class="cls-2" points="57.31 66.51 50.34 66.43 49.74 70.83 57.31 70.75 57.31 66.51"/><polygon class="cls-2" points="58.72 3.7 51.99 3.86 52.57 7.85 58.3 7.6 58.72 3.7"/><polygon class="cls-2" points="66.43 67.13 61.79 66.68 61.79 70.75 66.18 70.62 66.43 67.13"/><polygon class="cls-2" points="67.38 3.98 62.29 3.98 61.63 8.02 66.96 8.1 67.38 3.98"/><polygon class="cls-3" points="28.52 39.04 15.71 39.04 15.71 42.17 23.54 42.17 22.34 45.73 20.95 45.01 18.62 46.62 23.72 51.78 27.29 48.29 25.7 47.47 28.52 39.04"/><polygon class="cls-4" points="29.57 41.71 29.57 50.02 33.65 50.02 33.28 41.71 29.57 41.71"/><path class="cls-4" d="M36.06,41.94s1.54,7.28-.51,10.85c-1.39,2.44-4.87,4.67-4.87,4.67s7.21,0,9-4.45,1.24-11.22,1.24-11.22Z" transform="translate(0 0)"/><polygon class="cls-1" points="55.63 42.16 53.32 41.93 53.29 39.02 50.09 39.02 50 41.62 44.19 41.06 44.19 44.77 49.9 44.77 49.86 46.11 42.95 48.71 43.75 52.35 49.76 49.01 49.58 54.6 53.44 54.6 53.34 44.77 55.48 44.77 55.63 42.16"/><polygon class="cls-5" points="24.73 32.48 19.18 28.38 23.21 24.55 23.21 21.25 10.52 21.25 10.52 23.8 18.78 24.29 8.25 32.06 11.79 35.41 17.06 30.39 21.67 36.31 24.73 32.48"/><path class="cls-1" d="M28.81,22.27l-4.39,8.11,3,0.66,0.91-1.64,4,0.83-2,7.32h3.89l3-12.92Zm4,6L29,27.58l0.76-2.3,3.66,0.66Z" transform="translate(0 0)"/><polygon class="cls-6" points="39.36 21.8 44.47 22.06 44.47 24.47 39.07 24.03 39.36 21.8"/><rect class="cls-6" x="39.15" y="25.81" width="5.39" height="2.8"/><rect class="cls-6" x="47.6" y="20.42" width="2.26" height="2.55"/><rect class="cls-6" x="50.72" y="20.34" width="2.15" height="2.6"/><path class="cls-6" d="M40.16,31.27l1.7,4.15a9.39,9.39,0,0,0,5.56-1.78c2.19-1.86,3.42-8.34,3.42-8.34l-1.52-.47A7.69,7.69,0,0,1,45,29.89C41.42,31.35,40.16,31.27,40.16,31.27Z" transform="translate(0 0)"/><polygon class="cls-3" points="54.97 26.13 59.06 26.43 59.25 23.13 62.26 23.13 62.26 26.43 65.66 26.43 65.66 29.24 62.65 29.24 62.65 38.27 59.55 38.27 59.55 30.99 52.95 35.84 51.19 31.86 58.09 28.95 53.72 28.95 54.97 26.13"/></svg>