<svg xmlns="http://www.w3.org/2000/svg" width="120" height="22" viewBox="0 0 120 22">
  <defs>
    <style>
      .cls-1 {
        fill: #fff;
        fill-rule: evenodd;
      }
    </style>
  </defs>
  <path id="MY_PAGE_のコピー" data-name="MY PAGE のコピー" class="cls-1" d="M18.9,17.249a13.03,13.03,0,0,1,.7-2.129L22,9.486a19.534,19.534,0,0,0,.736-2.337c-0.016.24-.064,1.056-0.128,2.449v5.314a14.887,14.887,0,0,1-.128,2.337h2.241a13.883,13.883,0,0,1-.128-2.337V6.877a16.584,16.584,0,0,1,.128-2.369H21.777a8.869,8.869,0,0,1-.576,1.9l-3.233,7.939L14.718,6.413a11.083,11.083,0,0,1-.592-1.9H11.2a15.869,15.869,0,0,1,.128,2.369v8.035a15,15,0,0,1-.128,2.337h2.241a14.617,14.617,0,0,1-.128-2.337V9.662c0-.352-0.064-1.665-0.128-2.513A17.822,17.822,0,0,0,14,9.6l2.3,5.49a10.892,10.892,0,0,1,.7,2.161H18.9Zm13.839,0a13.207,13.207,0,0,1-.128-2.065V12.031l3.7-5.874c0.272-.448.88-1.329,1.1-1.649H34.624a7,7,0,0,1-.752,1.585l-2.353,3.922L29.2,6.076a6.481,6.481,0,0,1-.768-1.569h-2.8c0.512,0.736.88,1.265,1.12,1.649l3.7,5.858v3.169a15.3,15.3,0,0,1-.128,2.065h2.417Zm12.878,0a12.906,12.906,0,0,1-.128-2.081V12.5h3.057a4.535,4.535,0,0,0,3.409-1.152A4.11,4.11,0,0,0,53.025,8.4a3.742,3.742,0,0,0-.992-2.753,4.546,4.546,0,0,0-3.409-1.136H45.278c-0.848,0-1.345-.016-2.033-0.048a14.457,14.457,0,0,1,.128,2.065v8.659a12.948,12.948,0,0,1-.128,2.065h2.369Zm-0.128-6.595V6.349h3.057a2.186,2.186,0,0,1,1.745.576,2.159,2.159,0,0,1,.528,1.537,2.014,2.014,0,0,1-2.273,2.193H45.486Zm20.356,6.595a16.81,16.81,0,0,1-.816-1.889L61.472,6.124a10.6,10.6,0,0,1-.544-1.617H58.142a9.479,9.479,0,0,1-.512,1.617L54.109,15.36a17.494,17.494,0,0,1-.848,1.889h2.625a7.986,7.986,0,0,1,.48-1.681l0.64-1.745h5.122l0.64,1.745a10.767,10.767,0,0,1,.448,1.681h2.625Zm-4.29-5.266h-3.97l1.665-4.738c0.048-.144.048-0.144,0.3-0.9,0.176,0.528.224,0.72,0.288,0.9Zm15.633,0.3A13.409,13.409,0,0,1,77.3,10.3c-0.688.048-1.152,0.064-1.889,0.064H74.576a11.936,11.936,0,0,1-1.921-.1v2.065a8.764,8.764,0,0,1,1.633-.1h0.864v2.609a4.777,4.777,0,0,1-2.721.72,3.35,3.35,0,0,1-2.785-1.1,5.652,5.652,0,0,1-1.088-3.746,5.01,5.01,0,0,1,1.185-3.649,3.382,3.382,0,0,1,2.433-.976A2.624,2.624,0,0,1,75.12,8.061l2.193-.592a4.513,4.513,0,0,0-1.184-1.9,5.228,5.228,0,0,0-3.681-1.377,6.07,6.07,0,0,0-3.553.944c-1.665,1.12-2.561,3.073-2.561,5.618a7.519,7.519,0,0,0,1.5,4.866,5.6,5.6,0,0,0,4.546,1.841,9.477,9.477,0,0,0,2.353-.3,10.152,10.152,0,0,0,2.561-1.1,13.221,13.221,0,0,1-.112-2.081V12.287Zm10.9,2.945a15.315,15.315,0,0,1-2.049.112h-4.8V11.567h3.906a12.547,12.547,0,0,1,2.081.112v-2.1a16.659,16.659,0,0,1-2.081.112h-3.89V6.4h4.61a14.334,14.334,0,0,1,2.065.112V4.4a17.1,17.1,0,0,1-2.065.112H81.021c-0.976,0-1.392-.016-2.033-0.048a14.166,14.166,0,0,1,.128,2.065v8.659a12.953,12.953,0,0,1-.128,2.113c0.64-.032,1.072-0.048,2.033-0.048h4.994a13.768,13.768,0,0,1,2.065.112V15.232Z"/>
  <path id="シェイプ_1_のコピー" data-name="シェイプ 1 のコピー" class="cls-1" d="M112.5,18a7.5,7.5,0,1,1,7.5-7.5A7.5,7.5,0,0,1,112.5,18Zm2.759-8L111.6,6.317a0.762,0.762,0,0,0-1.081,1.073l3.123,3.145-3.123,3.145a0.762,0.762,0,0,0,1.081,1.074l3.656-3.681A0.762,0.762,0,0,0,115.259,10Z"/>
</svg>
